<svg width="30" height="30" viewBox="0 0 30 30" fill="none" xmlns="http://www.w3.org/2000/svg">
<path fill-rule="evenodd" clip-rule="evenodd" d="M15 29.0879C23.0171 29.0879 29.5161 22.5888 29.5161 14.5718C29.5161 6.55475 23.0171 0.0556641 15 0.0556641C6.98298 0.0556641 0.483887 6.55475 0.483887 14.5718C0.483887 22.5888 6.98298 29.0879 15 29.0879ZM17.3027 7.79945C17.4066 7.80843 19.7889 8.01429 21.2959 9.22533C22.1146 9.9793 23.7097 14.2931 23.7097 18.0221C23.7097 18.088 23.6929 18.1522 23.66 18.2094C22.5588 20.1442 19.5552 20.6506 18.8702 20.6724C18.8665 20.6729 18.8628 20.6729 18.8584 20.6729C18.7377 20.6729 18.6238 20.6158 18.5523 20.5174L17.8214 19.5127C19.4414 19.1214 20.2955 18.5073 20.3472 18.4694C20.6221 18.2666 20.6806 17.8797 20.479 17.6035C20.2768 17.3259 19.8874 17.2656 19.6112 17.4659C19.5956 17.4772 18.0154 18.5908 15 18.5908C12.0493 18.5908 10.4681 17.5202 10.3915 17.4684C10.3902 17.4674 10.3893 17.4668 10.3888 17.4665C10.1126 17.2644 9.72444 17.3253 9.52163 17.6009C9.3182 17.8778 9.37792 18.2672 9.65414 18.4707C9.70578 18.5086 10.5643 19.1239 12.188 19.5152L11.4477 20.518C11.3762 20.6158 11.2623 20.6736 11.1416 20.6736C11.1379 20.6736 11.1342 20.6736 11.1298 20.6729C10.4454 20.6512 7.44188 20.1448 6.34011 18.2099C6.30714 18.1528 6.29034 18.0887 6.29034 18.0227C6.29034 14.2931 7.88546 9.9793 8.68425 9.24151C10.2122 8.01282 12.5967 7.80752 12.6976 7.79943C12.8569 7.78326 13.008 7.87533 13.0733 8.02153C13.0758 8.0265 13.2127 8.40662 13.3483 8.78363C11.5908 9.08971 10.3957 9.77279 10.3322 9.81014C10.0361 9.98308 9.93596 10.3632 10.1083 10.6593C10.2806 10.9567 10.6613 11.0581 10.9581 10.8858C10.9756 10.8758 12.723 9.88108 15.0013 9.88108C17.2789 9.88108 19.0257 10.8752 19.0431 10.8858C19.1415 10.943 19.2485 10.9698 19.3549 10.9698C19.5688 10.9698 19.7773 10.859 19.8923 10.6612C20.066 10.3645 19.9664 9.98308 19.669 9.81014C19.6056 9.77279 18.4148 9.0922 16.6623 8.78549C16.6962 8.68756 16.7303 8.58868 16.7623 8.49601C16.8521 8.23612 16.9249 8.0252 16.9267 8.02153C16.992 7.87595 17.1434 7.78577 17.3027 7.79945ZM11.2673 15.1691C11.2673 16.0282 11.8241 16.7244 12.5116 16.7244C13.199 16.7244 13.7558 16.0282 13.7558 15.1691C13.7558 14.3099 13.199 13.6138 12.5116 13.6138C11.8241 13.6138 11.2673 14.3099 11.2673 15.1691ZM16.2442 15.1691C16.2442 16.0282 16.8011 16.7244 17.4885 16.7244C18.176 16.7244 18.7327 16.0282 18.7327 15.1691C18.7327 14.3099 18.176 13.6138 17.4885 13.6138C16.8011 13.6138 16.2442 14.3099 16.2442 15.1691Z" fill="white"/>
</svg>
