<svg width="30" height="31" viewBox="0 0 30 31" fill="none" xmlns="http://www.w3.org/2000/svg">
<rect y="0.921875" width="30" height="30" rx="15" fill="white"/>
<g clip-path="url(#clip0_139_127)">
<g clip-path="url(#clip1_139_127)">
<path d="M10.1672 23.4215H6.53906V11.7379H10.1672V23.4215ZM8.35117 10.1441C7.19102 10.1441 6.25 9.1832 6.25 8.02305C6.25 7.46578 6.47137 6.93134 6.86542 6.53729C7.25947 6.14325 7.79391 5.92188 8.35117 5.92188C8.90844 5.92188 9.44288 6.14325 9.83692 6.53729C10.231 6.93134 10.4523 7.46578 10.4523 8.02305C10.4523 9.1832 9.51094 10.1441 8.35117 10.1441ZM23.7461 23.4215H20.1258V17.734C20.1258 16.3785 20.0984 14.6402 18.2395 14.6402C16.3531 14.6402 16.0641 16.1129 16.0641 17.6363V23.4215H12.4398V11.7379H15.9195V13.3316H15.9703C16.4547 12.4137 17.6379 11.4449 19.4031 11.4449C23.075 11.4449 23.75 13.8629 23.75 17.0035V23.4215H23.7461Z" fill="black"/>
</g>
</g>
<defs>
<clipPath id="clip0_139_127">
<rect width="20" height="20" fill="white" transform="translate(5 5.92188)"/>
</clipPath>
<clipPath id="clip1_139_127">
<rect width="20" height="20" fill="white" transform="translate(5 5.92188)"/>
</clipPath>
</defs>
</svg>
