<svg width="30" height="30" viewBox="0 0 30 30" fill="none" xmlns="http://www.w3.org/2000/svg">
<path fill-rule="evenodd" clip-rule="evenodd" d="M15 29.0567C23.0171 29.0567 29.5161 22.5575 29.5161 14.5406C29.5161 6.5235 23.0171 0.0244141 15 0.0244141C6.98298 0.0244141 0.483887 6.5235 0.483887 14.5406C0.483887 22.5575 6.98298 29.0567 15 29.0567ZM16.8604 21.4693H23.7097V21.0848L21.929 19.6736V9.37373L23.6832 7.89901V7.61724H18.886L15.5 16.1087L11.5748 7.61724H6.5213V7.89901L8.36787 10.2075V18.5707L6.29034 21.0848V21.4693H11.524V21.0848L9.5146 18.5707V11.5413L13.9099 21.4693H14.5253L18.4645 11.6187V19.6736L16.8604 21.0848V21.4693Z" fill="white"/>
</svg>
