<svg width="34" height="24" viewBox="0 0 34 24" fill="none" xmlns="http://www.w3.org/2000/svg">
<path d="M7.63776 0.63854C5.65112 1.19226 4.49406 1.9042 3.09687 3.4599C0.804588 5.96484 -0.374297 9.97276 0.10599 13.506C0.870082 18.9115 4.23209 22.7348 8.77298 23.3413C11.2617 23.684 14.4928 22.2338 16.3266 19.9662C17.7238 18.2259 18.3787 16.6966 18.8372 13.9807C19.1646 12.0031 19.1646 11.713 18.8372 9.73545C18.4442 7.44144 17.9203 6.04395 16.8942 4.48824C14.8639 1.45594 10.8033 -0.231599 7.63776 0.63854Z" fill="#151515"/>
<path d="M23.3126 1.53504C22.4611 2.08876 21.2386 4.3564 20.6055 6.51856C19.9724 8.73346 19.9724 15.009 20.6055 17.2239C21.2823 19.597 22.5485 21.8646 23.4217 22.3129C24.5133 22.8666 25.6922 22.7875 26.5436 22.0756C28.945 20.1244 30.3859 13.506 29.4908 8.46978C29.1197 6.30762 28.0718 3.38079 27.3295 2.43155C26.2598 1.03405 24.6443 0.664901 23.3126 1.53504Z" fill="#151515"/>
<path d="M31.5211 3.01164C30.1239 6.83498 30.1239 16.9075 31.5211 20.7308L32.0014 22.0229L32.438 21.4164C34.3373 18.595 34.3373 5.14743 32.438 2.32608L32.0014 1.71961L31.5211 3.01164Z" fill="#151515"/>
</svg>
