<svg width="49" height="48" viewBox="0 0 49 48" fill="none" xmlns="http://www.w3.org/2000/svg">
<path d="M12.022 12C11.1947 12 10.522 11.3273 10.522 10.5C10.522 9.67275 11.1947 9 12.022 9C12.8492 9 13.522 9.67275 13.522 10.5C13.522 11.3273 12.8492 12 12.022 12Z" fill="url(#paint0_linear_112_897)"/>
<path d="M16.522 12C15.6947 12 15.022 11.3273 15.022 10.5C15.022 9.67275 15.6947 9 16.522 9C17.3492 9 18.022 9.67275 18.022 10.5C18.022 11.3273 17.3492 12 16.522 12Z" fill="url(#paint1_linear_112_897)"/>
<path d="M21.022 12C20.1947 12 19.522 11.3273 19.522 10.5C19.522 9.67275 20.1947 9 21.022 9C21.8492 9 22.522 9.67275 22.522 10.5C22.522 11.3273 21.8492 12 21.022 12Z" fill="url(#paint2_linear_112_897)"/>
<path d="M38.272 6H9.77197C7.70422 6 6.02197 7.68225 6.02197 9.75V38.25C6.02197 40.3177 7.70422 42 9.77197 42H38.272C40.3397 42 42.022 40.3177 42.022 38.25V9.75C42.022 7.68225 40.3397 6 38.272 6ZM9.77197 7.5H38.272C39.5125 7.5 40.522 8.5095 40.522 9.75V13.5H7.52197V9.75C7.52197 8.5095 8.53147 7.5 9.77197 7.5ZM38.272 40.5H9.77197C8.53147 40.5 7.52197 39.4905 7.52197 38.25V15H40.522V38.25C40.522 39.4905 39.5125 40.5 38.272 40.5Z" fill="url(#paint3_linear_112_897)"/>
<path d="M17.4004 21.1855L12.0477 25.8693C11.7214 26.1543 11.5347 26.5668 11.5347 27.0003C11.5347 27.4338 11.7214 27.8455 12.0477 28.1313L17.4004 32.8143L18.3882 31.6855L13.0354 26.9973L18.3882 22.3143L17.4004 21.1855Z" fill="url(#paint4_radial_112_897)"/>
<path d="M31.1688 21.2139L30.1211 22.2871L34.9466 27.0031L30.1211 31.7139L31.1688 32.7871L35.9943 28.0764C36.2861 27.7914 36.4473 27.4089 36.4473 27.0009C36.4473 26.5929 36.2861 26.2104 35.9943 25.9254L31.1688 21.2139Z" fill="url(#paint5_radial_112_897)"/>
<path d="M20.3164 36.4961L21.7279 37.0046L28.4779 18.2546L27.0664 17.7461L20.3164 36.4961Z" fill="url(#paint6_radial_112_897)"/>
<defs>
<linearGradient id="paint0_linear_112_897" x1="12.022" y1="9" x2="12.022" y2="12" gradientUnits="userSpaceOnUse">
<stop stop-color="#42CC2B"/>
<stop offset="1" stop-color="#1B5432"/>
</linearGradient>
<linearGradient id="paint1_linear_112_897" x1="16.522" y1="9" x2="16.522" y2="12" gradientUnits="userSpaceOnUse">
<stop stop-color="#42CC2B"/>
<stop offset="1" stop-color="#1B5432"/>
</linearGradient>
<linearGradient id="paint2_linear_112_897" x1="21.022" y1="9" x2="21.022" y2="12" gradientUnits="userSpaceOnUse">
<stop stop-color="#42CC2B"/>
<stop offset="1" stop-color="#1B5432"/>
</linearGradient>
<linearGradient id="paint3_linear_112_897" x1="24.022" y1="6" x2="24.022" y2="42" gradientUnits="userSpaceOnUse">
<stop stop-color="#42CC2B"/>
<stop offset="1" stop-color="#1B5432"/>
</linearGradient>
<radialGradient id="paint4_radial_112_897" cx="0" cy="0" r="1" gradientUnits="userSpaceOnUse" gradientTransform="translate(14.9614 26.9999) rotate(90) scale(5.81437 3.42675)">
<stop stop-color="#1EBF10"/>
<stop offset="1" stop-color="#0BBE3D"/>
</radialGradient>
<radialGradient id="paint5_radial_112_897" cx="0" cy="0" r="1" gradientUnits="userSpaceOnUse" gradientTransform="translate(33.2842 27.0005) rotate(90) scale(5.78662 3.16313)">
<stop stop-color="#42EE34"/>
<stop offset="1" stop-color="#13BA41"/>
</radialGradient>
<radialGradient id="paint6_radial_112_897" cx="0" cy="0" r="1" gradientUnits="userSpaceOnUse" gradientTransform="translate(24.3972 27.3753) rotate(90) scale(9.62925 4.08075)">
<stop stop-color="#28BF10"/>
<stop offset="1" stop-color="#5AA61E"/>
</radialGradient>
</defs>
</svg>
