<svg width="30" height="30" viewBox="0 0 30 30" fill="none" xmlns="http://www.w3.org/2000/svg">
<path d="M15 0.4375C6.97459 0.4375 0.46875 6.94334 0.46875 14.9688C0.46875 22.9942 6.97459 29.5 15 29.5C23.0254 29.5 29.5312 22.9942 29.5312 14.9688C29.5312 6.94334 23.0254 0.4375 15 0.4375ZM21.7355 10.3199C21.5168 12.6177 20.5706 18.1936 20.089 20.7672C19.8853 21.8561 19.4842 22.2213 19.0959 22.2569C18.2522 22.3346 17.6113 21.6993 16.794 21.1635C15.515 20.3252 14.7925 19.8033 13.551 18.9852C12.1164 18.0398 13.0464 17.5203 13.864 16.6707C14.078 16.4485 17.7961 13.0666 17.868 12.7598C17.877 12.7214 17.8856 12.5782 17.8004 12.5029C17.7152 12.4277 17.5901 12.4532 17.4995 12.4737C17.3713 12.5028 15.3282 13.8532 11.3702 16.5249C10.7903 16.9231 10.265 17.1172 9.79436 17.107C9.27551 17.0958 8.27748 16.8137 7.53551 16.5725C6.62549 16.2767 5.90221 16.1203 5.9652 15.6179C5.99801 15.3562 6.35836 15.0886 7.04625 14.8152C11.2824 12.9696 14.1072 11.7528 15.5205 11.1648C19.556 9.48625 20.3946 9.19469 20.9411 9.18496C21.0613 9.18297 21.3301 9.21273 21.5042 9.354C21.62 9.45464 21.6938 9.59507 21.711 9.74752C21.7405 9.93681 21.7487 10.1288 21.7355 10.3199Z" fill="white"/>
</svg>
