<svg width="30" height="30" viewBox="0 0 30 30" fill="none" xmlns="http://www.w3.org/2000/svg">
<path d="M15 0.0712891C6.96228 0.0712891 0.483887 6.54968 0.483887 14.5874C0.483887 22.6251 6.96228 29.1036 15 29.1036C23.0378 29.1036 29.5161 22.6251 29.5161 14.5874C29.5161 6.54968 23.0378 0.0712891 15 0.0712891ZM23.8316 11.3979V11.9365C23.8316 17.3801 19.7064 23.66 12.1081 23.66C9.79745 23.66 7.61436 23.0221 5.79985 21.8455C6.09754 21.8739 6.43776 21.9163 6.76382 21.9163C8.72009 21.9163 10.4637 21.1367 11.8813 20.031C10.0952 20.0026 8.54998 18.8828 8.03965 17.2383C8.28064 17.2809 8.54998 17.3092 8.81932 17.3092C9.18789 17.3092 9.55647 17.2809 9.89669 17.1816C8.01129 16.7705 6.59371 15.1261 6.59371 13.1131V13.0706C7.13239 13.3825 7.77031 13.5809 8.45075 13.5809C7.34502 12.8438 6.63623 11.5963 6.63623 10.1503C6.63623 9.41321 6.83469 8.70441 7.17491 8.0665C9.21625 10.5898 12.2782 12.2342 15.7088 12.4043C15.638 12.1066 15.6096 11.7664 15.6096 11.4687C15.6096 9.17222 17.4241 7.32935 19.7064 7.32935C20.883 7.32935 21.9604 7.83969 22.6975 8.63354C23.6331 8.43507 24.4696 8.10903 25.2775 7.62705C24.9799 8.60518 24.3703 9.41321 23.5056 9.92351C24.3419 9.81018 25.15 9.58333 25.8871 9.27145C25.3201 10.0795 24.6396 10.8308 23.8316 11.3979Z" fill="white"/>
</svg>
