<svg width="30" height="30" viewBox="0 0 30 30" fill="none" xmlns="http://www.w3.org/2000/svg">
<path fill-rule="evenodd" clip-rule="evenodd" d="M15 29.0411C23.0171 29.0411 29.5161 22.5419 29.5161 14.5249C29.5161 6.50788 23.0171 0.00878906 15 0.00878906C6.98298 0.00878906 0.483887 6.50788 0.483887 14.5249C0.483887 22.5419 6.98298 29.0411 15 29.0411ZM7.15376 9.54991C7.70659 9.01754 8.4564 8.71846 9.23823 8.71846H20.7618C21.5436 8.71846 22.2934 9.01754 22.8463 9.54991C23.3991 10.0822 23.7097 10.8043 23.7097 11.5572V17.4926C23.7097 18.2455 23.3991 18.9676 22.8463 19.4999C22.2934 20.0323 21.5436 20.3314 20.7618 20.3314H9.23823C8.4564 20.3314 7.70659 20.0323 7.15376 19.4999C6.60092 18.9676 6.29034 18.2455 6.29034 17.4926V11.5572C6.29034 10.8043 6.60092 10.0822 7.15376 9.54991ZM13.1857 17.2191L18.4115 14.6385V14.6411C18.4335 14.6302 18.4519 14.6138 18.4647 14.5935C18.4776 14.5732 18.4845 14.5499 18.4845 14.5262C18.4845 14.5025 18.4776 14.4792 18.4647 14.4589C18.4519 14.4386 18.4335 14.4222 18.4115 14.4113L13.1857 11.8307C13.1654 11.8206 13.1426 11.8157 13.1198 11.8163C13.0969 11.817 13.0745 11.8234 13.055 11.8348C13.0353 11.8461 13.019 11.8622 13.0076 11.8814C12.9963 11.9005 12.9903 11.9222 12.9901 11.9443V17.1055C12.9903 17.1276 12.9963 17.1493 13.0076 17.1684C13.019 17.1876 13.0353 17.2037 13.055 17.2151C13.0745 17.2265 13.0969 17.2328 13.1198 17.2336C13.1426 17.2342 13.1654 17.2293 13.1857 17.2191Z" fill="white"/>
</svg>
